<svg xmlns="http://www.w3.org/2000/svg" width="295.91" height="89.78" viewBox="0 0 295.91 89.78"><defs><style>.a{fill:#fff;}</style></defs><title>Asset 1</title><path class="a" d="M125.14,43.84a.66.66,0,0,0,.68.68h10.86A10.25,10.25,0,0,0,138.6,24.2a8.87,8.87,0,0,0-4.33-16.63h-8.45a.66.66,0,0,0-.68.68Zm1.32-.64V25.37h10.22a8.92,8.92,0,0,1,0,17.83Zm0-19.26v-15h7.81a7.69,7.69,0,0,1,7.54,7.54,7.53,7.53,0,0,1-7.54,7.51Zm28.92,10.14h0a10.37,10.37,0,0,0,10.33,10.44h0a10.42,10.42,0,0,0,10.45-10.44V19.34h0a.67.67,0,0,0-.68-.68h0a.73.73,0,0,0-.68.68V34.08h0a9.1,9.1,0,0,1-9.09,9.12h0a9.08,9.08,0,0,1-9-9.12V19.34h0a.7.7,0,0,0-.64-.68h0a.66.66,0,0,0-.68.68Zm56.14,9.76V8.36a.75.75,0,0,0-.67-.79.82.82,0,0,0-.65.79V25.78a12.38,12.38,0,0,0-11.12-7.12,12.72,12.72,0,0,0-12.55,12.89,12.76,12.76,0,0,0,12.55,13,12.41,12.41,0,0,0,11.12-7.09v6.41a.7.7,0,0,0,.65.68A.65.65,0,0,0,211.52,43.84ZM210.2,31.55c0,6.41-5,11.65-11.12,11.65a11.48,11.48,0,0,1-11.23-11.65,11.18,11.18,0,1,1,22.35-.49ZM245,18.66a.66.66,0,0,0-.6.68h0v6.41a12.21,12.21,0,0,0-10.9-7.09c-6.75,0-12.18,5.8-12.18,12.93s5.43,12.93,12.18,12.93a12.19,12.19,0,0,0,10.9-7.12v5.65A11,11,0,0,1,233.54,54a10.75,10.75,0,0,1-4.75-1.17.74.74,0,0,0-.9.3.72.72,0,0,0,.26.9,12.16,12.16,0,0,0,17.61-11V19.34A.66.66,0,0,0,245,18.66Zm-.6,12.93c0,6.45-4.94,11.58-10.9,11.58S222.68,38,222.68,31.59,227.59,20,233.54,20s10.9,5.16,10.9,11.61ZM258,43.84a.66.66,0,1,0,1.31,0V19.3a.6.6,0,0,0-.6-.64c-.45,0-.71.22-.71.64Zm0-31.55a.66.66,0,0,0,1.31,0V11A.66.66,0,1,0,258,11ZM283.5,44.52a12.49,12.49,0,0,0,10.37-5.84.64.64,0,0,0-.15-.91c-.38-.15-.72-.15-.94.15a11,11,0,0,1-9.28,5.28,11.49,11.49,0,0,1-11.27-11.61v-.15h23c.31,0,.57-.34.65-.64v-.23A12.6,12.6,0,0,0,283.5,18.66a12.93,12.93,0,0,0,0,25.86Zm0-24.5a11.4,11.4,0,0,1,11.09,10.14H272.3A11.36,11.36,0,0,1,283.5,20Z"/><circle class="a" cx="14.56" cy="13.79" r="2.04"/><path class="a" d="M25.15,71.46a2.81,2.81,0,0,1-.9-.21,2.15,2.15,0,0,1-1.18-1.37c-.46-1.59.33-2.8,2.34-3.61a18.8,18.8,0,0,1,6.87-1.39,19.42,19.42,0,0,1,8.47,1.94c1.87.85,2.69,2.22,2.15,3.66a2,2,0,0,1-1.24,1.2A3.25,3.25,0,0,1,39,71.21a14.16,14.16,0,0,0-12.41,0A3.08,3.08,0,0,1,25.15,71.46Zm8.15-4.6c-.33,0-.66,0-1,0a16.77,16.77,0,0,0-6.17,1.24c-1.39.56-1.29.92-1.19,1.26a.71.71,0,0,0,.8.08,15.84,15.84,0,0,1,6.07-1.59,16.31,16.31,0,0,1,8.12,1.69,1.52,1.52,0,0,0,1.13.31c.23-.6-.91-1.15-1.15-1.25a17.28,17.28,0,0,0-6.62-1.73Zm2.35-46c0-.16-1-17.39-15-20.29A16.1,16.1,0,0,0,6.8,3.08,8.73,8.73,0,0,0,4.36,9.71l.17,1.11,1.1-.32a3,3,0,0,1,2.57.31,4.07,4.07,0,0,1,1.42,3.37c.07,3.83-1,8.29-3.07,9l-.46.13-.2.53a10.15,10.15,0,0,0,.78,8.71,6.08,6.08,0,0,0,4.63,2.17l.7,0a8,8,0,0,0,7.2-4.15A28.56,28.56,0,0,1,23.54,26a18.43,18.43,0,0,1,11.11-4h1.09ZM17.71,29.43C15.94,31.59,15,32.86,12,32.83a4.34,4.34,0,0,1-3.81-1.49,7.56,7.56,0,0,1-.52-6.51c3.22-1.68,4-7.4,3.87-10.69a6.1,6.1,0,0,0-2.2-4.89,4.84,4.84,0,0,0-3.07-.82A6.6,6.6,0,0,1,8.2,4.5a11.32,11.32,0,0,1,9-2.32,8.14,8.14,0,0,1,2.25,5.21,12.54,12.54,0,0,1-5.06,9.81,3.8,3.8,0,0,0-1.53,4.37,4.42,4.42,0,0,0,4.2,2.6,6.32,6.32,0,0,1,4.39,1.06A22.22,22.22,0,0,0,17.71,29.43ZM23,24a6.76,6.76,0,0,0-5.9-1.7,2.67,2.67,0,0,1-2.32-1.47c-.28-.64.07-1.4,1-2.12a14.57,14.57,0,0,0,5.7-11.19,8.25,8.25,0,0,0-1.64-5l.55,0C31,4.68,33.2,16.44,33.68,20A20.6,20.6,0,0,0,23,24Z"/><path class="a" d="M20.25,20.52A2.62,2.62,0,0,1,17.71,19c-.48-1.46.91-3.13,3.21-3.9a5.2,5.2,0,0,1,3.82,0,2.09,2.09,0,0,1,1.09,1.21c.49,1.46-.9,3.14-3.21,3.91A6.36,6.36,0,0,1,20.25,20.52Zm3-3.86a4.49,4.49,0,0,0-1.67.25c-1.34.43-2,1.21-2,1.45a3,3,0,0,0,2.44,0c1.4-.47,2-1.24,2-1.45A1.28,1.28,0,0,0,23.21,16.66ZM8.33,12.38a2.62,2.62,0,0,0-2.42-1.17,3.82,3.82,0,0,0-3.09,3.25A5.78,5.78,0,0,0,.27,17.73a6.44,6.44,0,0,0,2.44,7.09l1.4,1.26.2-1.86a6.61,6.61,0,0,1,.16-1.32,3.38,3.38,0,0,0,2.3-.63,3.31,3.31,0,0,0,1.17-2.43,2.46,2.46,0,0,0,.14-1.08,2.16,2.16,0,0,0,.07-1v-.08A5.39,5.39,0,0,0,8.33,12.38ZM6,13.17c.31,0,.54,0,.68.28A1.91,1.91,0,0,1,7,14.8a3.25,3.25,0,0,0-1.9-.9C5.29,13.51,5.63,13.15,6,13.17ZM2.59,21.85a4.48,4.48,0,0,1-.48-3.54,3.68,3.68,0,0,1,2.5-2.57A2,2,0,0,1,6,16.36a2.42,2.42,0,0,1,.3,1.51c-2.43.23-3.26,2.22-3.69,4Zm3-1.13a.94.94,0,0,1-.65.19,1.69,1.69,0,0,1,1-1,1.21,1.21,0,0,1-.37.84ZM80.66,52a25.28,25.28,0,0,0-9.58-2.71c-1.83-2-14.48-15.42-20.17-20.47a21.36,21.36,0,0,0-18.48-5.22A16.15,16.15,0,0,0,18.69,35,13.85,13.85,0,0,0,24,50a46.68,46.68,0,0,0,27.21,9,102.54,102.54,0,0,0,10.52,0C78.31,58.44,81,56.19,81.44,54.5A2.11,2.11,0,0,0,80.66,52Zm-19,5.12a53.22,53.22,0,0,1-36.44-8.61,12.13,12.13,0,0,1-4.63-13.16,14.14,14.14,0,0,1,12.16-9.85,22.74,22.74,0,0,1,5-.31,19.2,19.2,0,0,1,11.78,5.11c4.66,4.12,14,13.83,18.2,18.23a102.67,102.67,0,0,1-11-3.11c-3.13-1.05-5.26-2-5.87-2.16a54.64,54.64,0,0,0,19.17,7.76.5.5,0,0,0,.31.1h.08a27,27,0,0,1,8.9,2.36c.14.16.29.32.21.4S78.28,56.49,61.69,57.16Z"/><path class="a" d="M36.43,63.48a38.94,38.94,0,0,1-8.38-1.4A24.87,24.87,0,0,1,8.57,37.28l-.22-1.4,1.39.3a8.42,8.42,0,0,0,5.67-.89L17.3,34.1l-.42,2.2A17.51,17.51,0,0,0,27.61,54.35a57.5,57.5,0,0,0,22.57,5.78l4.56.21L50.49,62a37.34,37.34,0,0,1-14.06,1.47ZM10.72,38.25a23.13,23.13,0,0,0,17.87,22,41.85,41.85,0,0,0,15,1.22A59.49,59.49,0,0,1,26.77,56.1a19,19,0,0,1-12-18.35,10.67,10.67,0,0,1-4,.5Zm96.94,51.53-5.39-2.24A175.06,175.06,0,0,1,59.36,62.45l-1.93-1.68,2.57,0a93.32,93.32,0,0,0,14.15-1.32l.5-.11.37.35,5.73,5.45C87.43,71.49,93.2,77,103.28,85.91Zm-45-27.19A177.14,177.14,0,0,0,97.46,83.32q-9.18-8.25-18.07-16.81L74,61.41a85.41,85.41,0,0,1-11.38,1.18Z"/><path class="a" d="M127.4,71.37l1.78-2.56h-.59l-1.43,2.06-1.43-2.06h-.59l1.78,2.56v1.68h.48Zm8.62-2.1v-.46H132.9v4.24H136v-.46h-2.64V71.16h2.36v-.47h-2.36V69.27Zm7-.46h-3.44v.46h1.48v3.78h.48V69.27H143Zm10.28,0h-.6l-1.8,4.24h.53l.52-1.23H154l.51,1.23h.54Zm-1.17,2.57.87-2.07.86,2.07ZM162,68.81v3.57l-2.62-3.57h-.56v4.24h.48V69.47l2.62,3.58h.56V68.81Zm6.6,0a2.17,2.17,0,1,0,2.15,2.17A2.09,2.09,0,0,0,168.61,68.76Zm0,3.87a1.71,1.71,0,1,1,1.67-1.7A1.61,1.61,0,0,1,168.61,72.63Zm8.95-3.82h-3.44v.46h1.49v3.78h.48V69.27h1.47Zm6.76,0v1.88h-2.46V68.81h-.48v4.24h.48V71.16h2.46v1.89h.48V68.81Zm7.84.46v-.46H189v4.24h3.12v-.46h-2.64V71.16h2.36v-.47h-2.36V69.27Zm4.46,2.15h1.47l1,1.63h.57l-1.12-1.71a1.17,1.17,0,0,0,1-1.21,1.29,1.29,0,0,0-1.43-1.32h-2v4.24h.48Zm0-2.16h1.49c.61,0,1,.33,1,.87s-.58.84-1,.84h-1.47Zm14.25,1.62a1,1,0,0,0,.57-.95c0-.52-.34-1.12-1.34-1.12h-1.9v4.24h2c1,0,1.45-.48,1.45-1.12A1.07,1.07,0,0,0,210.87,70.88Zm-2.19-1.62h1.47A.71.71,0,0,1,211,70c0,.52-.42.74-.86.74h-1.42Zm1.58,3.33h-1.58V71.14h1.53c.67,0,1,.36,1,.75S210.84,72.59,210.26,72.59Zm8.45-3.78v2.43a1.32,1.32,0,1,1-2.64,0V68.81h-.48v2.41a1.81,1.81,0,1,0,3.61,0V68.81Zm6.46,0h-1.79v4.24h1.79a2.13,2.13,0,0,0,0-4.24Zm0,3.78h-1.29V69.26h1.29a1.68,1.68,0,0,1,0,3.33Zm7.77-3.83a2.17,2.17,0,0,0,0,4.34,1.78,1.78,0,0,0,1.54-.8v.75h.44V70.79h-2v.44h1.55a1.42,1.42,0,0,1-1.5,1.4,1.71,1.71,0,0,1,0-3.41,1.49,1.49,0,0,1,1.37.74h.52A2,2,0,0,0,232.92,68.76Zm9.13.51v-.46h-3.12v4.24h3.12v-.46h-2.64V71.16h2.36v-.47h-2.36V69.27Zm7-.46H245.6v.46h1.48v3.78h.48V69.27H249Zm4.29,0h-.48v4.24h.48Zm7.42,0v3.57l-2.62-3.57h-.56v4.24h.48V69.47l2.62,3.58h.56V68.81Zm6.54,0a2.17,2.17,0,0,0,0,4.34,1.78,1.78,0,0,0,1.54-.8v.75h.44V70.79h-2v.44h1.55a1.42,1.42,0,0,1-1.5,1.4,1.71,1.71,0,0,1,0-3.41,1.48,1.48,0,0,1,1.37.74h.52A2,2,0,0,0,267.29,68.76Zm12.48,0h-.6l-1.8,4.24h.53l.52-1.23h2.1l.52,1.23h.53Zm-1.16,2.57.86-2.07.87,2.07Zm7.18.16h1.43a1.37,1.37,0,1,0,0-2.73h-1.91v4.24h.48Zm1.4-2.28c.66,0,1,.35,1,.91s-.35.92-1,.92h-1.4V69.26ZM293,71.54h1.43a1.37,1.37,0,1,0,0-2.73h-1.91v4.24H293Zm1.39-2.28c.67,0,1,.35,1,.91s-.34.92-1,.92H293V69.26Z"/><path class="a" d="M125.14,43.84a.66.66,0,0,0,.68.68h10.86A10.25,10.25,0,0,0,138.6,24.2a8.87,8.87,0,0,0-4.33-16.63h-8.45a.66.66,0,0,0-.68.68Zm1.32-.64V25.37h10.22a8.92,8.92,0,0,1,0,17.83Zm0-19.26v-15h7.81a7.69,7.69,0,0,1,7.54,7.54,7.53,7.53,0,0,1-7.54,7.51Zm28.92,10.14h0a10.37,10.37,0,0,0,10.33,10.44h0a10.42,10.42,0,0,0,10.45-10.44V19.34h0a.67.67,0,0,0-.68-.68h0a.73.73,0,0,0-.68.68V34.08h0a9.1,9.1,0,0,1-9.09,9.12h0a9.08,9.08,0,0,1-9-9.12V19.34h0a.7.7,0,0,0-.64-.68h0a.66.66,0,0,0-.68.68Zm56.14,9.76V8.36a.75.75,0,0,0-.67-.79.82.82,0,0,0-.65.79V25.78a12.38,12.38,0,0,0-11.12-7.12,12.72,12.72,0,0,0-12.55,12.89,12.76,12.76,0,0,0,12.55,13,12.41,12.41,0,0,0,11.12-7.09v6.41a.7.7,0,0,0,.65.68A.65.65,0,0,0,211.52,43.84ZM210.2,31.55c0,6.41-5,11.65-11.12,11.65a11.48,11.48,0,0,1-11.23-11.65,11.18,11.18,0,1,1,22.35-.49ZM245,18.66a.66.66,0,0,0-.6.68h0v6.41a12.21,12.21,0,0,0-10.9-7.09c-6.75,0-12.18,5.8-12.18,12.93s5.43,12.93,12.18,12.93a12.19,12.19,0,0,0,10.9-7.12v5.65A11,11,0,0,1,233.54,54a10.75,10.75,0,0,1-4.75-1.17.74.74,0,0,0-.9.3.72.72,0,0,0,.26.9,12.16,12.16,0,0,0,17.61-11V19.34A.66.66,0,0,0,245,18.66Zm-.6,12.93c0,6.45-4.94,11.58-10.9,11.58S222.68,38,222.68,31.59,227.59,20,233.54,20s10.9,5.16,10.9,11.61ZM258,43.84a.66.66,0,1,0,1.31,0V19.3a.6.6,0,0,0-.6-.64c-.45,0-.71.22-.71.64Zm0-31.55a.66.66,0,0,0,1.31,0V11A.66.66,0,1,0,258,11ZM283.5,44.52a12.49,12.49,0,0,0,10.37-5.84.64.64,0,0,0-.15-.91c-.38-.15-.72-.15-.94.15a11,11,0,0,1-9.28,5.28,11.49,11.49,0,0,1-11.27-11.61v-.15h23c.31,0,.57-.34.65-.64v-.23A12.6,12.6,0,0,0,283.5,18.66a12.93,12.93,0,0,0,0,25.86Zm0-24.5a11.4,11.4,0,0,1,11.09,10.14H272.3A11.36,11.36,0,0,1,283.5,20Z"/><circle class="a" cx="14.56" cy="13.79" r="2.04"/><path class="a" d="M25.15,71.46a2.81,2.81,0,0,1-.9-.21,2.15,2.15,0,0,1-1.18-1.37c-.46-1.59.33-2.8,2.34-3.61a18.8,18.8,0,0,1,6.87-1.39,19.42,19.42,0,0,1,8.47,1.94c1.87.85,2.69,2.22,2.15,3.66a2,2,0,0,1-1.24,1.2A3.25,3.25,0,0,1,39,71.21a14.16,14.16,0,0,0-12.41,0A3.08,3.08,0,0,1,25.15,71.46Zm8.15-4.6c-.33,0-.66,0-1,0a16.77,16.77,0,0,0-6.17,1.24c-1.39.56-1.29.92-1.19,1.26a.71.71,0,0,0,.8.08,15.84,15.84,0,0,1,6.07-1.59,16.31,16.31,0,0,1,8.12,1.69,1.52,1.52,0,0,0,1.13.31c.23-.6-.91-1.15-1.15-1.25a17.28,17.28,0,0,0-6.62-1.73Zm2.35-46c0-.16-1-17.39-15-20.29A16.1,16.1,0,0,0,6.8,3.08,8.73,8.73,0,0,0,4.36,9.71l.17,1.11,1.1-.32a3,3,0,0,1,2.57.31,4.07,4.07,0,0,1,1.42,3.37c.07,3.83-1,8.29-3.07,9l-.46.13-.2.53a10.15,10.15,0,0,0,.78,8.71,6.08,6.08,0,0,0,4.63,2.17l.7,0a8,8,0,0,0,7.2-4.15A28.56,28.56,0,0,1,23.54,26a18.43,18.43,0,0,1,11.11-4h1.09ZM17.71,29.43C15.94,31.59,15,32.86,12,32.83a4.34,4.34,0,0,1-3.81-1.49,7.56,7.56,0,0,1-.52-6.51c3.22-1.68,4-7.4,3.87-10.69a6.1,6.1,0,0,0-2.2-4.89,4.84,4.84,0,0,0-3.07-.82A6.6,6.6,0,0,1,8.2,4.5a11.32,11.32,0,0,1,9-2.32,8.14,8.14,0,0,1,2.25,5.21,12.54,12.54,0,0,1-5.06,9.81,3.8,3.8,0,0,0-1.53,4.37,4.42,4.42,0,0,0,4.2,2.6,6.32,6.32,0,0,1,4.39,1.06A22.22,22.22,0,0,0,17.71,29.43ZM23,24a6.76,6.76,0,0,0-5.9-1.7,2.67,2.67,0,0,1-2.32-1.47c-.28-.64.07-1.4,1-2.12a14.57,14.57,0,0,0,5.7-11.19,8.25,8.25,0,0,0-1.64-5l.55,0C31,4.68,33.2,16.44,33.68,20A20.6,20.6,0,0,0,23,24Z"/><path class="a" d="M20.25,20.52A2.62,2.62,0,0,1,17.71,19c-.48-1.46.91-3.13,3.21-3.9a5.2,5.2,0,0,1,3.82,0,2.09,2.09,0,0,1,1.09,1.21c.49,1.46-.9,3.14-3.21,3.91A6.36,6.36,0,0,1,20.25,20.52Zm3-3.86a4.49,4.49,0,0,0-1.67.25c-1.34.43-2,1.21-2,1.45a3,3,0,0,0,2.44,0c1.4-.47,2-1.24,2-1.45A1.28,1.28,0,0,0,23.21,16.66ZM8.33,12.38a2.62,2.62,0,0,0-2.42-1.17,3.82,3.82,0,0,0-3.09,3.25A5.78,5.78,0,0,0,.27,17.73a6.44,6.44,0,0,0,2.44,7.09l1.4,1.26.2-1.86a6.61,6.61,0,0,1,.16-1.32,3.38,3.38,0,0,0,2.3-.63,3.31,3.31,0,0,0,1.17-2.43,2.46,2.46,0,0,0,.14-1.08,2.16,2.16,0,0,0,.07-1v-.08A5.39,5.39,0,0,0,8.33,12.38ZM6,13.17c.31,0,.54,0,.68.28A1.91,1.91,0,0,1,7,14.8a3.25,3.25,0,0,0-1.9-.9C5.29,13.51,5.63,13.15,6,13.17ZM2.59,21.85a4.48,4.48,0,0,1-.48-3.54,3.68,3.68,0,0,1,2.5-2.57A2,2,0,0,1,6,16.36a2.42,2.42,0,0,1,.3,1.51c-2.43.23-3.26,2.22-3.69,4Zm3-1.13a.94.94,0,0,1-.65.19,1.69,1.69,0,0,1,1-1,1.21,1.21,0,0,1-.37.84ZM80.66,52a25.28,25.28,0,0,0-9.58-2.71c-1.83-2-14.48-15.42-20.17-20.47a21.36,21.36,0,0,0-18.48-5.22A16.15,16.15,0,0,0,18.69,35,13.85,13.85,0,0,0,24,50a46.68,46.68,0,0,0,27.21,9,102.54,102.54,0,0,0,10.52,0C78.31,58.44,81,56.19,81.44,54.5A2.11,2.11,0,0,0,80.66,52Zm-19,5.12a53.22,53.22,0,0,1-36.44-8.61,12.13,12.13,0,0,1-4.63-13.16,14.14,14.14,0,0,1,12.16-9.85,22.74,22.74,0,0,1,5-.31,19.2,19.2,0,0,1,11.78,5.11c4.66,4.12,14,13.83,18.2,18.23a102.67,102.67,0,0,1-11-3.11c-3.13-1.05-5.26-2-5.87-2.16a54.64,54.64,0,0,0,19.17,7.76.5.5,0,0,0,.31.1h.08a27,27,0,0,1,8.9,2.36c.14.16.29.32.21.4S78.28,56.49,61.69,57.16Z"/><path class="a" d="M36.43,63.48a38.94,38.94,0,0,1-8.38-1.4A24.87,24.87,0,0,1,8.57,37.28l-.22-1.4,1.39.3a8.42,8.42,0,0,0,5.67-.89L17.3,34.1l-.42,2.2A17.51,17.51,0,0,0,27.61,54.35a57.5,57.5,0,0,0,22.57,5.78l4.56.21L50.49,62a37.34,37.34,0,0,1-14.06,1.47ZM10.72,38.25a23.13,23.13,0,0,0,17.87,22,41.85,41.85,0,0,0,15,1.22A59.49,59.49,0,0,1,26.77,56.1a19,19,0,0,1-12-18.35,10.67,10.67,0,0,1-4,.5Zm96.94,51.53-5.39-2.24A175.06,175.06,0,0,1,59.36,62.45l-1.93-1.68,2.57,0a93.32,93.32,0,0,0,14.15-1.32l.5-.11.37.35,5.73,5.45C87.43,71.49,93.2,77,103.28,85.91Zm-45-27.19A177.14,177.14,0,0,0,97.46,83.32q-9.18-8.25-18.07-16.81L74,61.41a85.41,85.41,0,0,1-11.38,1.18Z"/><path class="a" d="M127.4,71.37l1.78-2.56h-.59l-1.43,2.06-1.43-2.06h-.59l1.78,2.56v1.68h.48Zm8.62-2.1v-.46H132.9v4.24H136v-.46h-2.64V71.16h2.36v-.47h-2.36V69.27Zm7-.46h-3.44v.46h1.48v3.78h.48V69.27H143Zm10.28,0h-.6l-1.8,4.24h.53l.52-1.23H154l.51,1.23h.54Zm-1.17,2.57.87-2.07.86,2.07ZM162,68.81v3.57l-2.62-3.57h-.56v4.24h.48V69.47l2.62,3.58h.56V68.81Zm6.6,0a2.17,2.17,0,1,0,2.15,2.17A2.09,2.09,0,0,0,168.61,68.76Zm0,3.87a1.71,1.71,0,1,1,1.67-1.7A1.61,1.61,0,0,1,168.61,72.63Zm8.95-3.82h-3.44v.46h1.49v3.78h.48V69.27h1.47Zm6.76,0v1.88h-2.46V68.81h-.48v4.24h.48V71.16h2.46v1.89h.48V68.81Zm7.84.46v-.46H189v4.24h3.12v-.46h-2.64V71.16h2.36v-.47h-2.36V69.27Zm4.46,2.15h1.47l1,1.63h.57l-1.12-1.71a1.17,1.17,0,0,0,1-1.21,1.29,1.29,0,0,0-1.43-1.32h-2v4.24h.48Zm0-2.16h1.49c.61,0,1,.33,1,.87s-.58.84-1,.84h-1.47Zm14.25,1.62a1,1,0,0,0,.57-.95c0-.52-.34-1.12-1.34-1.12h-1.9v4.24h2c1,0,1.45-.48,1.45-1.12A1.07,1.07,0,0,0,210.87,70.88Zm-2.19-1.62h1.47A.71.71,0,0,1,211,70c0,.52-.42.74-.86.74h-1.42Zm1.58,3.33h-1.58V71.14h1.53c.67,0,1,.36,1,.75S210.84,72.59,210.26,72.59Zm8.45-3.78v2.43a1.32,1.32,0,1,1-2.64,0V68.81h-.48v2.41a1.81,1.81,0,1,0,3.61,0V68.81Zm6.46,0h-1.79v4.24h1.79a2.13,2.13,0,0,0,0-4.24Zm0,3.78h-1.29V69.26h1.29a1.68,1.68,0,0,1,0,3.33Zm7.77-3.83a2.17,2.17,0,0,0,0,4.34,1.78,1.78,0,0,0,1.54-.8v.75h.44V70.79h-2v.44h1.55a1.42,1.42,0,0,1-1.5,1.4,1.71,1.71,0,0,1,0-3.41,1.49,1.49,0,0,1,1.37.74h.52A2,2,0,0,0,232.92,68.76Zm9.13.51v-.46h-3.12v4.24h3.12v-.46h-2.64V71.16h2.36v-.47h-2.36V69.27Zm7-.46H245.6v.46h1.48v3.78h.48V69.27H249Zm4.29,0h-.48v4.24h.48Zm7.42,0v3.57l-2.62-3.57h-.56v4.24h.48V69.47l2.62,3.58h.56V68.81Zm6.54,0a2.17,2.17,0,0,0,0,4.34,1.78,1.78,0,0,0,1.54-.8v.75h.44V70.79h-2v.44h1.55a1.42,1.42,0,0,1-1.5,1.4,1.71,1.71,0,0,1,0-3.41,1.48,1.48,0,0,1,1.37.74h.52A2,2,0,0,0,267.29,68.76Zm12.48,0h-.6l-1.8,4.24h.53l.52-1.23h2.1l.52,1.23h.53Zm-1.16,2.57.86-2.07.87,2.07Zm7.18.16h1.43a1.37,1.37,0,1,0,0-2.73h-1.91v4.24h.48Zm1.4-2.28c.66,0,1,.35,1,.91s-.35.92-1,.92h-1.4V69.26ZM293,71.54h1.43a1.37,1.37,0,1,0,0-2.73h-1.91v4.24H293Zm1.39-2.28c.67,0,1,.35,1,.91s-.34.92-1,.92H293V69.26Z"/></svg>