<svg xmlns="http://www.w3.org/2000/svg" width="107.92" height="90" viewBox="0 0 107.92 90"><defs><style>.a{fill:#fff;}</style></defs><title>Asset 1</title><circle class="a" cx="14.59" cy="13.82" r="2.05"/><path class="a" d="M25.21,71.63a2.37,2.37,0,0,1-.9-.21,2.13,2.13,0,0,1-1.18-1.36q-.69-2.4,2.34-3.63A19,19,0,0,1,32.36,65,19.37,19.37,0,0,1,40.85,67c1.88.86,2.7,2.23,2.15,3.67a2,2,0,0,1-1.23,1.21,3.37,3.37,0,0,1-2.69-.47,14.17,14.17,0,0,0-12.43,0A2.87,2.87,0,0,1,25.21,71.63ZM33.38,67c-.33,0-.66,0-1,0a16.87,16.87,0,0,0-6.19,1.24c-1.39.57-1.29.93-1.19,1.27a.71.71,0,0,0,.8.08A16.18,16.18,0,0,1,31.89,68,16.39,16.39,0,0,1,40,69.69a1.52,1.52,0,0,0,1.13.31c.23-.6-.91-1.15-1.15-1.25A17,17,0,0,0,33.38,67Zm2.35-46.09c0-.16-1-17.43-15.06-20.34A16.13,16.13,0,0,0,6.82,3.09,8.72,8.72,0,0,0,4.37,9.74l.17,1.11,1.11-.32a2.93,2.93,0,0,1,2.57.31,4.08,4.08,0,0,1,1.43,3.37c.07,3.84-1,8.31-3.08,9l-.47.12-.19.54a10.12,10.12,0,0,0,.78,8.73,6,6,0,0,0,4.63,2.17l.71,0a8,8,0,0,0,7.22-4.16A27.86,27.86,0,0,1,23.6,26,18.53,18.53,0,0,1,34.73,22h1.1Zm-18,8.56C16,31.66,15,32.94,12.07,32.91a4.35,4.35,0,0,1-3.82-1.49,7.58,7.58,0,0,1-.53-6.53c3.24-1.68,4-7.42,3.88-10.71A6.11,6.11,0,0,0,9.4,9.27a4.84,4.84,0,0,0-3.07-.82A6.63,6.63,0,0,1,8.22,4.51a11.37,11.37,0,0,1,9.06-2.33,8.13,8.13,0,0,1,2.26,5.23,12.59,12.59,0,0,1-5.08,9.84,3.8,3.8,0,0,0-1.53,4.37,4.43,4.43,0,0,0,4.22,2.61,6.33,6.33,0,0,1,4.39,1.06A21.62,21.62,0,0,0,17.76,29.5ZM23,24.05a6.78,6.78,0,0,0-5.91-1.71,2.7,2.7,0,0,1-2.33-1.47c-.27-.64.08-1.41,1-2.12A14.61,14.61,0,0,0,21.48,7.53a8.33,8.33,0,0,0-1.64-5l.55,0c10.66,2.16,12.89,14,13.37,17.5A20.63,20.63,0,0,0,23,24.05Z"/><path class="a" d="M20.3,20.57A2.62,2.62,0,0,1,17.76,19c-.49-1.47.9-3.14,3.21-3.92a5.22,5.22,0,0,1,3.83,0,2.08,2.08,0,0,1,1.1,1.21c.48,1.47-.91,3.15-3.23,3.92A6.33,6.33,0,0,1,20.3,20.57Zm3-3.87a4.57,4.57,0,0,0-1.68.25c-1.34.44-2,1.22-2,1.46a3,3,0,0,0,2.45,0c1.4-.47,2-1.25,2-1.46A1.28,1.28,0,0,0,23.27,16.7ZM8.35,12.41a2.63,2.63,0,0,0-2.43-1.17,3.84,3.84,0,0,0-3.1,3.25A5.84,5.84,0,0,0,.27,17.77a6.46,6.46,0,0,0,2.44,7.11l1.41,1.27.2-1.87A6.61,6.61,0,0,1,4.48,23a3.46,3.46,0,0,0,2.31-.63A3.37,3.37,0,0,0,8,19.89a2.46,2.46,0,0,0,.14-1.08,2.2,2.2,0,0,0,.07-1v-.07A5.43,5.43,0,0,0,8.35,12.41ZM6,13.2c.31,0,.55,0,.69.28A1.91,1.91,0,0,1,7,14.83a3.41,3.41,0,0,0-1.9-.9C5.3,13.55,5.64,13.18,6,13.2ZM2.6,21.91a4.52,4.52,0,0,1-.49-3.55,3.7,3.7,0,0,1,2.51-2.58A2,2,0,0,1,6,16.4a2.35,2.35,0,0,1,.3,1.51c-2.43.23-3.26,2.23-3.69,4Zm3-1.14A.84.84,0,0,1,5,21a1.74,1.74,0,0,1,1-1,1.17,1.17,0,0,1-.37.84ZM80.86,52.16a25.56,25.56,0,0,0-9.6-2.71C69.42,47.46,56.74,34,51,28.93A21.38,21.38,0,0,0,32.51,23.7,16.17,16.17,0,0,0,18.74,35a13.89,13.89,0,0,0,5.31,15.12,46.87,46.87,0,0,0,27.27,9.06,100.53,100.53,0,0,0,10.56,0c16.62-.67,19.27-2.94,19.76-4.62a2.14,2.14,0,0,0-.78-2.48Zm-19,5.14a53.35,53.35,0,0,1-36.53-8.63,12.15,12.15,0,0,1-4.64-13.19,14.16,14.16,0,0,1,12.19-9.87,21.75,21.75,0,0,1,5-.31,19.18,19.18,0,0,1,11.8,5.12c4.67,4.13,14,13.86,18.25,18.27a106.67,106.67,0,0,1-11-3.11c-3.14-1.06-5.28-2-5.89-2.17a55,55,0,0,0,19.22,7.78.45.45,0,0,0,.32.09h.07a27.41,27.41,0,0,1,8.93,2.37c.14.16.28.32.21.4C79.71,54.29,78.47,56.63,61.84,57.3Z"/><path class="a" d="M36.52,63.64a38.82,38.82,0,0,1-8.41-1.41A24.93,24.93,0,0,1,8.59,37.37L8.37,36l1.39.3a8.42,8.42,0,0,0,5.69-.9l1.89-1.18-.42,2.2A17.54,17.54,0,0,0,27.68,54.48a57.64,57.64,0,0,0,22.63,5.8l4.56.21-4.26,1.67a37.3,37.3,0,0,1-14.09,1.48ZM10.75,38.35a23.17,23.17,0,0,0,17.91,22,42.33,42.33,0,0,0,15,1.23,60.61,60.61,0,0,1-16.86-5.35,19,19,0,0,1-12.06-18.4,11,11,0,0,1-4,.51ZM107.92,90l-5.4-2.25a175.06,175.06,0,0,1-43-25.15l-1.94-1.68,2.57,0a95,95,0,0,0,14.19-1.32l.5-.11.37.35L81,65.26c6.69,6.4,12.48,11.91,22.59,20.86ZM62.8,62.75A178.33,178.33,0,0,0,97.7,83.53q-9.2-8.28-18.11-16.85l-5.37-5.12a85.53,85.53,0,0,1-11.41,1.19Z"/></svg>